<svg height="480pt" viewBox="-24 0 480 480" width="480pt" xmlns="http://www.w3.org/2000/svg"><path d="m8 8h368v464h-368zm0 0" fill="#d8ccbd"/><path d="m8 8h64v464h-64zm0 0" fill="#ac8168"/><path d="m48 72c0 4.417969-3.582031 8-8 8s-8-3.582031-8-8 3.582031-8 8-8 8 3.582031 8 8zm0 0"/><path d="m48 184c0 4.417969-3.582031 8-8 8s-8-3.582031-8-8 3.582031-8 8-8 8 3.582031 8 8zm0 0"/><path d="m48 296c0 4.417969-3.582031 8-8 8s-8-3.582031-8-8 3.582031-8 8-8 8 3.582031 8 8zm0 0"/><path d="m48 408c0 4.417969-3.582031 8-8 8s-8-3.582031-8-8 3.582031-8 8-8 8 3.582031 8 8zm0 0"/><path d="m296 184-40-50.289062-40 50.289062v-176h80zm0 0" fill="#ff5b42"/><path d="m376 72h48v48h-48zm0 0" fill="#92aeba"/><path d="m376 120h48v48h-48zm0 0" fill="#ac8168"/><path d="m376 168h48v48h-48zm0 0" fill="#92aeba"/><path d="m376 216h48v48h-48zm0 0" fill="#ac8168"/><path d="m8 480h368c4.417969 0 8-3.582031 8-8v-200h40c4.417969 0 8-3.582031 8-8v-192c0-4.417969-3.582031-8-8-8h-40v-56c0-4.417969-3.582031-8-8-8h-368c-4.417969 0-8 3.582031-8 8v464c0 4.417969 3.582031 8 8 8zm408-320h-32v-32h32zm0 96h-32v-32h32zm0-48h-32v-32h32zm0-128v32h-32v-32zm-48-8v392h-288v-448h128v168c.003906 3.398438 2.15625 6.421875 5.363281 7.542969 3.207031 1.121093 6.773438.089843 8.894531-2.566407l33.742188-42.417968 33.742188 42.402344c1.515624 1.914062 3.816406 3.03125 6.257812 3.039062.898438-.003906 1.789062-.15625 2.640625-.449219 3.210937-1.121093 5.359375-4.148437 5.359375-7.550781v-168h64zm-80-56v145.097656l-25.742188-32.363281c-1.519531-1.902344-3.824218-3.011719-6.257812-3.011719s-4.738281 1.109375-6.257812 3.011719l-25.742188 32.363281v-145.097656zm-272 0h48v448h-48zm0 0"/><path d="m48 72c0 4.417969-3.582031 8-8 8s-8-3.582031-8-8 3.582031-8 8-8 8 3.582031 8 8zm0 0"/><path d="m48 184c0 4.417969-3.582031 8-8 8s-8-3.582031-8-8 3.582031-8 8-8 8 3.582031 8 8zm0 0"/><path d="m48 296c0 4.417969-3.582031 8-8 8s-8-3.582031-8-8 3.582031-8 8-8 8 3.582031 8 8zm0 0"/><path d="m48 408c0 4.417969-3.582031 8-8 8s-8-3.582031-8-8 3.582031-8 8-8 8 3.582031 8 8zm0 0"/></svg>